# Blender v2.67 (sub 0) OBJ File: 'controllerPC.blend'
# www.blender.org
g Projection
v 0.317884 0.487581 0.891327
v 0.317884 0.487581 0.108673
v 0.682116 0.935821 0.891327
v 0.682116 0.935821 0.108673
vt 0.552999 0.007786
vt 0.908260 0.007786
vt 0.552999 0.269954
vt 0.908260 0.269954
vn -0.776082 0.630632 0.000000
s off
f 2/1/1 1/2/1 4/3/1
f 1/2/1 3/4/1 4/3/1
g ConrollerPCProjector
v 0.400881 0.159016 0.157099
v 0.599119 0.202144 0.225679
v 0.599119 0.232909 0.294259
v 0.400881 0.159016 0.842901
v 0.599119 0.252315 0.362839
v 0.599119 0.262406 0.431420
v 0.599119 0.265511 0.500000
v 0.599119 0.262406 0.568580
v 0.599119 0.252315 0.637161
v 0.599119 0.232909 0.705741
v 0.599119 0.202144 0.774321
v 0.599119 0.159016 0.842901
v 0.599119 0.159016 0.157099
v 0.400881 0.202144 0.774321
v 0.400881 0.232909 0.705741
v 0.400881 0.252315 0.637161
v 0.400881 0.262406 0.568580
v 0.400881 0.265511 0.500000
v 0.400881 0.262406 0.431420
v 0.400881 0.252315 0.362839
v 0.400881 0.232909 0.294259
v 0.400881 0.202144 0.225679
v 0.456326 0.219714 0.774321
v 0.543674 0.219714 0.774321
v 0.543674 0.294037 0.568580
v 0.456326 0.297866 0.500000
v 0.543674 0.297866 0.500000
v 0.456326 0.294037 0.431420
v 0.543674 0.294037 0.431420
v 0.456326 0.294037 0.568580
v 0.456326 0.257658 0.294259
v 0.543674 0.257658 0.294259
v 0.456326 0.281591 0.362839
v 0.543674 0.281591 0.362839
v 0.543674 0.180040 0.842901
v 0.543674 0.180040 0.157099
v 0.456326 0.180040 0.157099
v 0.456326 0.180040 0.842901
v 0.543674 0.281591 0.637161
v 0.456326 0.281591 0.637161
v 0.543674 0.257658 0.705741
v 0.456326 0.257658 0.705741
v 0.543674 0.219714 0.225679
v 0.456326 0.219714 0.225679
v 0.400881 0.100000 0.157099
v 0.599119 0.100000 0.225679
v 0.599119 0.100000 0.294259
v 0.400881 0.100000 0.842901
v 0.599119 0.100000 0.362839
v 0.599119 0.100000 0.431420
v 0.599119 0.100000 0.500000
v 0.599119 0.100000 0.568580
v 0.599119 0.100000 0.637161
v 0.599119 0.100000 0.705741
v 0.599119 0.100000 0.774321
v 0.599119 0.100000 0.842901
v 0.599119 0.100000 0.157099
v 0.400881 0.100000 0.774321
v 0.400881 0.100000 0.705741
v 0.400881 0.100000 0.637161
v 0.400881 0.100000 0.568580
v 0.400881 0.100000 0.500000
v 0.400881 0.100000 0.431420
v 0.400881 0.100000 0.362839
v 0.400881 0.100000 0.294259
v 0.400881 0.100000 0.225679
v 0.543674 0.100000 0.842901
v 0.543674 0.100000 0.157099
v 0.456326 0.100000 0.157099
v 0.456326 0.100000 0.842901
vt 0.557671 0.354316
vt 0.594047 0.354316
vt 0.590343 0.382056
vt 0.624991 0.382056
vt 0.629349 0.354316
vt 0.661570 0.354316
vt 0.658053 0.382056
vt 0.690953 0.286941
vt 0.692757 0.314680
vt 0.658487 0.286941
vt 0.692463 0.354316
vt 0.661884 0.314680
vt 0.625321 0.286941
vt 0.629610 0.314680
vt 0.590473 0.286941
vt 0.690495 0.382056
vt 0.722929 0.382056
vt 0.755373 0.382056
vt 0.753569 0.354316
vt 0.787839 0.382056
vt 0.784442 0.354316
vt 0.755831 0.286941
vt 0.753863 0.314680
vt 0.723310 0.314680
vt 0.788273 0.286941
vt 0.784756 0.314680
vt 0.594108 0.314680
vt 0.553000 0.286941
vt 0.723397 0.286941
vt 0.816716 0.354316
vt 0.855983 0.286941
vt 0.852279 0.314680
vt 0.816978 0.314680
vt 0.852218 0.354316
vt 0.821005 0.382056
vt 0.821335 0.286941
vt 0.888655 0.314680
vt 0.888678 0.354316
vt 0.723016 0.354316
vt 0.855853 0.382056
vt 0.557648 0.314680
vt 0.893327 0.286941
vt 0.798633 0.474174
vt 0.767503 0.472765
vt 0.767502 0.399046
vt 0.954281 0.425831
vt 0.923152 0.445408
vt 0.954280 0.399043
vt 0.674113 0.445412
vt 0.642983 0.425835
vt 0.642983 0.399046
vt 0.736372 0.558884
vt 0.705242 0.550076
vt 0.736372 0.489746
vt 0.736373 0.468185
vt 0.736373 0.399047
vt 0.617816 0.435378
vt 0.617816 0.399046
vt 0.892022 0.459374
vt 0.923151 0.399043
vt 0.954281 0.516536
vt 0.923151 0.536112
vt 0.923151 0.489747
vt 0.892021 0.550077
vt 0.892021 0.489747
vt 0.617816 0.526077
vt 0.578167 0.526077
vt 0.578167 0.489745
vt 0.705243 0.459377
vt 0.705243 0.399047
vt 0.578167 0.435377
vt 0.860893 0.468183
vt 0.892021 0.399044
vt 0.829761 0.563465
vt 0.798631 0.564874
vt 0.798632 0.489746
vt 0.674113 0.536111
vt 0.705243 0.489746
vt 0.860891 0.558885
vt 0.860891 0.489746
vt 0.674113 0.399047
vt 0.829763 0.472764
vt 0.860891 0.399045
vt 0.552999 0.516534
vt 0.767502 0.563465
vt 0.552999 0.425834
vt 0.578167 0.399045
vt 0.829762 0.399045
vt 0.642983 0.516534
vt 0.617816 0.489745
vt 0.767502 0.489746
vt 0.674113 0.489746
vt 0.829762 0.489746
vt 0.552999 0.382056
vt 0.893327 0.382056
vt 0.798632 0.399046
vt 0.954281 0.489747
vt 0.552999 0.489745
vt 0.553000 0.399045
vt 0.642983 0.489745
vn 0.264519 0.834761 -0.482912
vn 0.277746 0.876501 -0.393197
vn 0.446170 0.844971 -0.294884
vn -0.491531 0.861583 -0.126773
vn 0.000000 0.983930 -0.178557
vn -0.452968 0.857846 -0.242736
vn 0.000000 0.944156 -0.329498
vn -0.377178 0.845010 -0.379070
vn 0.489486 0.857998 -0.155704
vn 0.495146 0.867921 -0.039293
vn 0.495146 0.867921 0.039293
vn 0.463030 0.876901 0.129027
vn -0.494947 0.867572 0.048444
vn -0.461034 0.873122 0.158448
vn -0.259087 0.817617 -0.514175
vn -0.503635 0.863032 -0.039072
vn 0.000000 0.875002 -0.484119
vn 0.446170 0.844971 0.294884
vn 0.000000 0.983930 0.178557
vn -0.267190 0.843191 0.466518
vn 0.363802 0.815044 0.450945
vn -0.388354 0.870050 0.303636
vn 0.000000 0.865593 0.500749
vn 0.000000 0.998445 -0.055751
vn 0.000000 0.944156 0.329498
vn 0.000000 0.875002 0.484119
vn 0.264519 0.834761 0.482912
vn 0.000000 0.865593 -0.500749
vn -0.311847 0.822428 0.475778
vn 0.000000 0.998445 0.055751
vn -1.000000 0.000000 0.000000
vn 1.000000 -0.000000 0.000000
vn -0.000000 0.000000 -1.000000
vn 0.000000 0.000000 1.000000
vn 0.305625 0.806018 -0.506881
vn 0.363802 0.815044 -0.450945
vn 0.394637 0.884124 -0.250171
vn -0.461034 0.873122 -0.158448
vn -0.388354 0.870050 -0.303636
vn -0.267190 0.843191 -0.466518
vn 0.463030 0.876901 -0.129027
vn 0.503435 0.862689 -0.048171
vn 0.503435 0.862689 0.048171
vn 0.489486 0.857998 0.155703
vn -0.503635 0.863032 0.039072
vn -0.491531 0.861583 0.126773
vn -0.311847 0.822428 -0.475778
vn -0.494947 0.867572 -0.048444
vn 0.394637 0.884124 0.250171
vn -0.377178 0.845010 0.379070
vn 0.277746 0.876501 0.393196
vn -0.452968 0.857846 0.242736
vn 0.305625 0.806018 0.506881
vn -0.259087 0.817617 0.514175
s off
f 40/5/2 47/6/2 6/7/2
f 7/8/3 6/7/3 47/6/3
f 36/9/4 38/10/4 9/11/4
f 23/12/5 32/13/5 24/14/5
f 32/13/6 33/15/6 38/10/6
f 24/14/7 37/16/7 25/17/7
f 37/16/8 38/10/8 36/9/8
f 25/17/9 35/18/9 26/19/9
f 38/10/10 33/15/10 10/20/10
f 11/21/11 10/20/11 33/15/11
f 12/22/12 11/21/12 29/23/12
f 13/24/13 12/22/13 43/25/13
f 21/26/14 34/27/14 30/28/14
f 20/29/15 44/30/15 34/27/15
f 26/19/16 48/31/16 5/32/16
f 22/33/17 30/28/17 23/12/17
f 35/18/18 36/9/18 48/31/18
f 43/25/19 45/34/19 13/24/19
f 44/30/20 43/25/20 29/23/20
f 18/35/21 27/36/21 46/37/21
f 45/34/22 28/38/22 14/39/22
f 19/40/23 46/37/23 44/30/23
f 42/41/24 39/42/24 28/38/24
f 30/28/25 31/43/25 33/15/25
f 46/37/26 45/34/26 43/25/26
f 27/36/27 28/38/27 45/34/27
f 28/38/28 39/42/28 15/44/28
f 48/31/29 47/6/29 41/45/29
f 8/46/30 42/41/30 27/36/30
f 34/27/31 29/23/31 31/43/31
f 22/47/32 23/48/32 67/49/32
f 8/50/32 18/51/32 52/52/32
f 26/53/32 5/54/32 49/55/32
f 13/56/33 14/57/33 57/58/33
f 23/48/32 24/59/32 68/60/32
f 5/54/34 41/61/34 73/62/34
f 18/51/32 19/63/32 62/64/32
f 17/65/33 6/66/33 50/67/33
f 6/66/33 7/68/33 51/69/33
f 39/70/35 42/71/35 74/72/35
f 24/59/32 25/73/32 69/74/32
f 41/61/34 40/75/34 73/62/34
f 19/63/32 20/76/32 63/77/32
f 10/78/33 11/79/33 55/80/33
f 14/57/33 15/81/33 58/82/33
f 7/68/33 9/83/33 53/84/33
f 25/73/32 26/53/32 70/85/32
f 20/76/32 21/86/32 64/87/32
f 42/71/35 8/88/35 74/72/35
f 11/79/33 12/89/33 55/80/33
f 40/75/34 17/90/34 72/91/34
f 21/86/32 22/47/32 65/92/32
f 16/93/35 39/70/35 71/94/35
f 12/89/33 13/56/33 56/95/33
f 15/81/33 16/93/33 59/96/33
f 9/83/33 10/78/33 54/97/33
f 17/98/36 40/5/36 6/7/36
f 36/9/37 7/8/37 47/6/37
f 7/8/38 36/9/38 9/11/38
f 32/13/39 37/16/39 24/14/39
f 37/16/6 32/13/6 38/10/6
f 37/16/40 35/18/40 25/17/40
f 35/18/8 37/16/8 36/9/8
f 35/18/41 48/31/41 26/19/41
f 9/11/42 38/10/42 10/20/42
f 31/43/43 11/21/43 33/15/43
f 11/21/44 31/43/44 29/23/44
f 12/22/45 29/23/45 43/25/45
f 22/33/46 21/26/46 30/28/46
f 21/26/47 20/29/47 34/27/47
f 48/31/48 41/45/48 5/32/48
f 30/28/49 32/13/49 23/12/49
f 36/9/18 47/6/18 48/31/18
f 45/34/50 14/39/50 13/24/50
f 34/27/20 44/30/20 29/23/20
f 19/40/51 18/35/51 46/37/51
f 28/38/52 15/44/52 14/39/52
f 20/29/53 19/40/53 44/30/53
f 27/36/24 42/41/24 28/38/24
f 32/13/25 30/28/25 33/15/25
f 44/30/26 46/37/26 43/25/26
f 46/37/27 27/36/27 45/34/27
f 39/42/54 16/99/54 15/44/54
f 47/6/29 40/5/29 41/45/29
f 18/35/55 8/46/55 27/36/55
f 30/28/31 34/27/31 31/43/31
f 66/100/32 22/47/32 67/49/32
f 18/51/32 62/64/32 52/52/32
f 70/85/32 26/53/32 49/55/32
f 14/57/33 58/82/33 57/58/33
f 67/49/32 23/48/32 68/60/32
f 49/55/34 5/54/34 73/62/34
f 19/63/32 63/77/32 62/64/32
f 61/101/33 17/65/33 50/67/33
f 50/67/33 6/66/33 51/69/33
f 71/94/35 39/70/35 74/72/35
f 68/60/32 24/59/32 69/74/32
f 40/75/34 72/91/34 73/62/34
f 20/76/32 64/87/32 63/77/32
f 54/97/33 10/78/33 55/80/33
f 15/81/33 59/96/33 58/82/33
f 51/69/33 7/68/33 53/84/33
f 69/74/32 25/73/32 70/85/32
f 21/86/32 65/92/32 64/87/32
f 8/88/35 52/102/35 74/72/35
f 12/89/33 56/95/33 55/80/33
f 17/90/34 61/103/34 72/91/34
f 22/47/32 66/100/32 65/92/32
f 60/104/35 16/93/35 71/94/35
f 13/56/33 57/58/33 56/95/33
f 16/93/33 60/104/33 59/96/33
f 53/84/33 9/83/33 54/97/33
g ControllerPCBase
v 0.000000 0.000000 0.000000
v 1.000000 0.000000 0.000000
v 1.000000 0.000000 1.000000
v 0.000000 0.000000 1.000000
v 0.033045 0.100000 0.033045
v 0.966955 0.100000 0.033045
v 0.966955 0.100000 0.966955
v 0.033045 0.100000 0.966955
v 0.400881 0.100000 0.157099
v 0.599119 0.100000 0.157099
v 0.599119 0.100000 0.842901
v 0.400881 0.100000 0.842901
v 1.000000 0.079167 0.000000
v 0.000000 0.079167 0.000000
v 1.000000 0.079167 1.000000
v 0.000000 0.079167 1.000000
vt 0.043873 0.500242
vt 0.045011 0.956089
vt 0.007786 0.500332
vt 0.501341 0.956088
vt 0.501341 0.992214
vt 0.500204 0.500243
vt 0.536291 0.500153
vt 0.500204 0.464117
vt 0.043873 0.464116
vt 0.043874 0.007786
vt 0.500205 0.007786
vt 0.061954 0.517993
vt 0.482500 0.518288
vt 0.426097 0.683500
vt 0.483260 0.938338
vt 0.426336 0.773066
vt 0.062714 0.938043
vt 0.118878 0.683265
vt 0.119117 0.772831
vt 0.008923 0.956179
vt 0.045011 0.992214
vt 0.537428 0.955998
vn -0.000000 -1.000000 -0.000000
vn 0.000000 1.000000 0.000000
vn 0.000000 0.845921 -0.533308
vn 0.533308 0.845921 0.000000
vn -0.000000 0.845921 0.533308
vn -0.533308 0.845921 0.000000
s off
f 88/105/34 87/106/34 75/107/34
f 87/106/33 89/108/33 77/109/33
f 89/108/35 90/110/35 78/111/35
f 90/110/32 88/105/32 78/112/32
f 75/113/56 76/114/56 77/115/56
f 79/116/57 82/117/57 86/118/57
f 82/117/57 81/119/57 85/120/57
f 80/121/57 79/116/57 83/122/57
f 81/119/57 80/121/57 84/123/57
f 79/116/58 80/121/58 88/105/58
f 80/121/59 81/119/59 89/108/59
f 81/119/60 82/117/60 90/110/60
f 82/117/61 79/116/61 90/110/61
f 87/106/34 76/124/34 75/107/34
f 76/125/33 87/106/33 77/109/33
f 77/126/35 89/108/35 78/111/35
f 88/105/32 75/113/32 78/112/32
f 78/112/56 75/113/56 77/115/56
f 83/122/57 79/116/57 86/118/57
f 86/118/57 82/117/57 85/120/57
f 84/123/57 80/121/57 83/122/57
f 85/120/57 81/119/57 84/123/57
f 80/121/58 87/106/58 88/105/58
f 87/106/59 80/121/59 89/108/59
f 89/108/60 81/119/60 90/110/60
f 79/116/61 88/105/61 90/110/61
