# Blender v2.67 (sub 0) OBJ File: 'energyCrystals.blend'
# www.blender.org
g giganticEnergyCrystal
v 1.582282 -1.531781 -1.422877
v 0.398167 -4.564405 0.500000
v 1.582282 -1.531781 2.422877
v 2.766396 1.500844 0.500000
v -0.582282 2.531781 -1.422877
v -1.766396 -0.500844 0.500000
v -0.582282 2.531782 2.422877
v 0.601833 5.564405 0.500000
vt 0.269618 0.298110
vt 0.327781 0.588980
vt 0.427070 0.346692
vt 0.220847 0.904847
vt 0.162684 0.613977
vt 0.007241 0.575434
vt 0.211456 0.007241
vt 0.104522 0.323107
vt 0.484415 0.588980
vt 0.377481 0.904847
vt 0.641049 0.588980
vt 0.368907 0.055822
vt 0.065403 0.866304
vt 0.534115 0.904847
vn 0.931510 -0.363716 0.000000
vn -0.931510 0.363716 0.000000
vn 0.542055 0.288740 -0.789180
vn -0.542055 -0.288740 -0.789180
vn -0.542055 -0.288740 0.789180
vn 0.542056 0.288740 0.789180
vn -0.542056 -0.288740 -0.789180
s off
f 1/1/1 4/2/1 3/3/1
f 8/4/2 5/5/2 6/6/2
f 1/1/3 5/5/3 4/2/3
f 2/7/4 6/8/4 5/5/4
f 3/9/5 7/10/5 2/11/5
f 4/2/6 8/4/6 7/10/6
f 2/12/1 1/1/1 3/3/1
f 7/13/2 8/4/2 6/6/2
f 5/5/3 8/4/3 4/2/3
f 1/1/7 2/7/7 5/5/7
f 7/10/5 6/14/5 2/11/5
f 3/9/6 4/2/6 7/10/6
g largeEnergyCrystal
v 0.523512 1.669322 0.500000
v 0.250112 0.969118 0.943974
v -0.023289 0.268915 0.500000
v 0.250112 0.969118 0.056026
v 1.023289 0.731085 0.500000
v 0.749888 0.030882 0.943974
v 0.476488 -0.669322 0.500000
v 0.749888 0.030882 0.056026
vt 0.722689 0.844740
vt 0.759154 0.894120
vt 0.759154 0.821790
vt 0.722689 0.772410
vt 0.722689 0.700079
vt 0.655530 0.898457
vt 0.691995 0.947837
vt 0.725575 0.920978
vt 0.689109 0.871598
vt 0.721125 0.992759
vt 0.694718 0.798890
vt 0.759154 0.749459
vt 0.754705 0.965901
vt 0.661138 0.825749
s off
f 13/15/6 9/16/6 10/17/6
f 14/18/5 10/17/5 15/19/5
f 15/20/7 11/21/7 12/22/7
f 16/23/3 12/22/3 13/15/3
f 9/16/2 12/22/2 11/24/2
f 16/23/1 13/15/1 14/25/1
f 14/18/6 13/15/6 10/17/6
f 10/17/5 11/26/5 15/19/5
f 16/23/7 15/20/7 12/22/7
f 12/22/3 9/16/3 13/15/3
f 10/27/2 9/16/2 11/24/2
f 15/28/1 16/23/1 14/25/1
g hugeEnergyCrystal
v 0.554495 3.210186 0.500000
v -0.079177 1.587296 1.529016
v -0.712848 -0.035595 0.500000
v -0.079177 1.587296 -0.529016
v 1.712848 1.035595 0.500000
v 1.079177 -0.587295 1.529016
v 0.445505 -2.210186 0.500000
v 1.079177 -0.587296 -0.529016
vt 0.811187 0.342528
vt 0.895704 0.456979
vt 0.895704 0.289335
vt 0.811187 0.174885
vt 0.811187 0.007241
vt 0.655530 0.467029
vt 0.740047 0.581479
vt 0.817876 0.519229
vt 0.733358 0.404778
vt 0.807562 0.685598
vt 0.746358 0.236261
vt 0.895704 0.121691
vt 0.885391 0.623348
vt 0.668529 0.298511
vn 0.542055 0.288740 0.789180
s off
f 21/29/6 17/30/6 18/31/6
f 22/32/5 18/31/5 23/33/5
f 23/34/4 19/35/4 20/36/4
f 24/37/3 20/36/3 21/29/3
f 17/30/2 20/36/2 19/38/2
f 24/37/1 21/29/1 22/39/1
f 22/32/8 21/29/8 18/31/8
f 18/31/5 19/40/5 23/33/5
f 24/37/7 23/34/7 20/36/7
f 20/36/3 17/30/3 21/29/3
f 18/41/2 17/30/2 19/38/2
f 23/42/1 24/37/1 22/39/1
g smallEnergyCrystal
v 0.505078 0.752548 0.500000
v 0.446030 0.601319 0.595888
v 0.386981 0.450091 0.500000
v 0.446030 0.601319 0.404112
v 0.613019 0.549909 0.500000
v 0.553970 0.398681 0.595888
v 0.494922 0.247452 0.500000
v 0.553970 0.398681 0.404112
vt 0.789620 0.826527
vt 0.784287 0.842279
vt 0.792098 0.842279
vt 0.797431 0.826527
vt 0.805242 0.826527
vt 0.783819 0.797517
vt 0.778487 0.813269
vt 0.781387 0.827774
vt 0.786720 0.812022
vt 0.773636 0.825852
vt 0.794571 0.814445
vt 0.799909 0.842279
vt 0.776536 0.840356
vt 0.791671 0.799940
vn -0.542056 -0.288740 0.789180
s off
f 29/43/8 25/44/8 26/45/8
f 30/46/5 26/45/5 31/47/5
f 31/48/4 27/49/4 28/50/4
f 32/51/3 28/50/3 29/43/3
f 25/44/2 28/50/2 27/52/2
f 32/51/1 29/43/1 30/53/1
f 30/46/8 29/43/8 26/45/8
f 26/45/9 27/54/9 31/47/9
f 32/51/4 31/48/4 28/50/4
f 28/50/3 25/44/3 29/43/3
f 26/55/2 25/44/2 27/52/2
f 31/56/1 32/51/1 30/53/1
g tinyEnergyCrystal
v 0.501182 0.558796 0.500000
v 0.487435 0.523588 0.522324
v 0.473688 0.488381 0.500000
v 0.487435 0.523588 0.477676
v 0.526312 0.511619 0.500000
v 0.512565 0.476412 0.522324
v 0.498818 0.441204 0.500000
v 0.512565 0.476412 0.477676
vt 0.823444 0.804271
vt 0.822203 0.807938
vt 0.824021 0.807938
vt 0.825263 0.804271
vt 0.827081 0.804271
vt 0.822094 0.797517
vt 0.820852 0.801184
vt 0.821528 0.804561
vt 0.822769 0.800894
vt 0.819723 0.804114
vt 0.824597 0.801458
vt 0.825840 0.807938
vt 0.820398 0.807491
vt 0.823922 0.798081
s off
f 37/57/8 33/58/8 34/59/8
f 38/60/9 34/59/9 39/61/9
f 39/62/4 35/63/4 36/64/4
f 40/65/3 36/64/3 37/57/3
f 33/58/2 36/64/2 35/66/2
f 40/65/1 37/57/1 38/67/1
f 38/60/8 37/57/8 34/59/8
f 34/59/5 35/68/5 39/61/5
f 40/65/7 39/62/7 36/64/7
f 36/64/3 33/58/3 37/57/3
f 34/69/2 33/58/2 35/66/2
f 39/70/1 40/65/1 38/67/1
g mediumEnergyCrystal
v 0.509411 0.968052 0.500000
v 0.399976 0.687777 0.677712
v 0.290540 0.407502 0.500000
v 0.399976 0.687777 0.322288
v 0.709460 0.592498 0.500000
v 0.600024 0.312223 0.677712
v 0.490589 0.031948 0.500000
v 0.600024 0.312223 0.322288
vt 0.803260 0.753844
vt 0.793377 0.783036
vt 0.807853 0.783036
vt 0.817736 0.753844
vt 0.832212 0.753844
vt 0.792509 0.700079
vt 0.782626 0.729272
vt 0.788002 0.756154
vt 0.797884 0.726962
vt 0.773636 0.752592
vt 0.812436 0.731452
vt 0.822329 0.783036
vt 0.779011 0.779474
vt 0.807061 0.704569
vn 0.542056 0.288740 -0.789180
s off
f 45/71/6 41/72/6 42/73/6
f 46/74/5 42/73/5 47/75/5
f 47/76/4 43/77/4 44/78/4
f 48/79/3 44/78/3 45/71/3
f 41/72/2 44/78/2 43/80/2
f 48/79/1 45/71/1 46/81/1
f 46/74/8 45/71/8 42/73/8
f 42/73/5 43/82/5 47/75/5
f 48/79/7 47/76/7 44/78/7
f 44/78/10 41/72/10 45/71/10
f 42/83/2 41/72/2 43/80/2
f 47/84/1 48/79/1 46/81/1
