# Blender v2.67 (sub 0) OBJ File: 'mini_powercore.blend'
# www.blender.org
g mini_powercore
v 0.000000 0.000000 0.000000
v 1.000000 0.000000 0.000000
v 1.000000 0.000000 1.000000
v 0.000000 0.000000 1.000000
v 0.000000 0.175435 0.000000
v 1.000000 0.175435 0.000000
v 1.000000 0.175435 1.000000
v 0.000000 0.175435 1.000000
v 0.181802 0.175435 0.181802
v 0.818198 0.175435 0.181802
v 0.818198 0.175435 0.818198
v 0.181802 0.175435 0.818198
v 0.500000 0.175435 0.050000
v 0.950000 0.505766 0.500000
v 0.818198 0.505766 0.181802
v 0.500000 0.505766 0.050000
v 0.181802 0.505766 0.181802
v 0.050000 0.505766 0.500000
v 0.181802 0.505766 0.818198
v 0.500000 0.505766 0.950000
v 0.818198 0.505766 0.818198
v 0.894692 0.505766 0.500000
v 0.779090 0.505766 0.220910
v 0.500000 0.505766 0.105308
v 0.220910 0.505766 0.220910
v 0.105308 0.505766 0.500000
v 0.220911 0.505766 0.779090
v 0.500000 0.505766 0.894692
v 0.779089 0.505766 0.779090
v 0.724459 0.369036 0.500000
v 0.658717 0.369036 0.341283
v 0.500000 0.369036 0.275541
v 0.341283 0.369036 0.341283
v 0.275541 0.369036 0.500000
v 0.341283 0.369036 0.658717
v 0.500000 0.369036 0.724459
v 0.658717 0.369036 0.658717
v 0.500000 0.175435 0.000000
v 0.500000 0.000000 0.000000
v 0.500000 0.175435 1.000000
v 0.500000 0.000000 1.000000
v 0.500000 0.175435 0.950000
v 0.000000 0.000000 0.500000
v 0.000000 0.175435 0.500000
v 1.000000 0.000000 0.500000
v 1.000000 0.175435 0.500000
v 0.500000 0.000000 0.500000
v 0.050000 0.175435 0.500000
v 0.950000 0.175435 0.500000
vt 0.281210 0.445423
vt 0.445423 0.445422
vt 0.281210 0.503040
vt 0.734867 0.008235
vt 0.899080 0.008235
vt 0.899080 0.065852
vt 0.281210 0.116996
vt 0.116996 0.116996
vt 0.116997 0.059378
vt 0.116996 0.281210
vt 0.116997 0.445423
vt 0.059379 0.281210
vt 0.734867 0.230066
vt 0.734867 0.065853
vt 0.445423 0.281209
vt 0.385714 0.385714
vt 0.347579 0.679143
vt 0.234464 0.679143
vt 0.234464 0.570654
vt 0.176705 0.176705
vt 0.445423 0.116996
vt 0.385714 0.176705
vt 0.570654 0.514287
vt 0.706867 0.514287
vt 0.666971 0.554183
vt 0.610550 0.417970
vt 0.666971 0.417970
vt 0.706867 0.457866
vt 0.216585 0.695614
vt 0.302966 0.782269
vt 0.284975 0.789589
vt 0.217048 0.991407
vt 0.094789 0.991765
vt 0.102298 0.973846
vt 0.008235 0.905167
vt 0.026238 0.897827
vt 0.094410 0.695917
vt 0.209066 0.713516
vt 0.302959 0.904660
vt 0.209652 0.973473
vt 0.008235 0.782656
vt 0.101796 0.713861
vt 0.285059 0.897191
vt 0.026154 0.790149
vt 0.217225 0.871264
vt 0.092508 0.868577
vt 0.218638 0.818718
vt 0.179982 0.907809
vt 0.128203 0.906512
vt 0.183272 0.780731
vt 0.131462 0.779692
vt 0.116997 0.503040
vt 0.281210 0.059379
vt 0.734867 0.394279
vt 0.899080 0.230066
vt 0.800040 0.679143
vt 0.686925 0.679143
vt 0.800040 0.570653
vt 0.570654 0.457866
vt 0.570654 0.008235
vt 0.570654 0.230066
vt 0.570654 0.065853
vt 0.176705 0.385714
vt 0.121350 0.679144
vt 0.570654 0.394279
vt 0.059379 0.116996
vt 0.573809 0.679143
vt 0.460694 0.679143
vt 0.460694 0.570654
vt 0.347579 0.570654
vt 0.573809 0.570653
vt 0.008235 0.679144
vt 0.121349 0.570655
vt 0.913155 0.679143
vt 0.913155 0.570653
vt 0.445423 0.503040
vt 0.059379 0.445423
vt 0.429001 0.281209
vt 0.133418 0.281210
vt 0.281210 0.133418
vt 0.610550 0.554183
vt 0.093938 0.816139
vt 0.445423 0.059379
vt 0.899080 0.394279
vt 0.686924 0.570653
vt 0.281210 0.429001
vt 0.008235 0.570655
vn 0.000000 0.000000 -1.000000
vn 1.000000 -0.000000 0.000000
vn 0.000000 0.000000 1.000000
vn -1.000000 0.000000 0.000000
vn -0.000000 -1.000000 -0.000000
vn -0.000000 1.000000 0.000000
vn 0.382684 0.000000 -0.923880
vn 0.251077 0.754678 -0.606153
vn -0.251077 0.754678 0.606153
vn 0.606153 0.754678 -0.251077
vn -0.606153 0.754678 -0.251077
vn -0.606153 0.754678 0.251077
vn 0.606153 0.754678 0.251077
vn -0.251077 0.754678 -0.606153
vn 0.251077 0.754678 0.606153
vn -0.382683 0.000000 0.923880
vn -0.382684 0.000000 -0.923880
vn 0.923880 -0.000000 0.382683
vn 0.923879 -0.000000 -0.382683
vn 0.382683 0.000000 0.923880
vn -0.923879 0.000000 -0.382683
vn -0.923880 -0.000000 0.382684
vn 0.382683 -0.000000 -0.923880
vn 0.923879 -0.000000 0.382684
vn -0.923880 0.000000 -0.382683
vn -0.923879 0.000000 0.382684
s off
f 38/1/1 6/2/1 39/3/1
f 46/4/2 7/5/2 3/6/2
f 40/7/3 8/8/3 4/9/3
f 44/10/4 5/11/4 43/12/4
f 47/13/5 45/14/5 3/6/5
f 46/15/6 6/2/6 10/16/6
f 10/17/7 13/18/7 16/19/7
f 44/10/6 8/8/6 12/20/6
f 40/7/6 7/21/6 11/22/6
f 31/23/6 36/24/6 37/25/6
f 33/26/6 34/27/6 35/28/6
f 18/29/6 19/30/6 27/31/6
f 21/32/6 14/33/6 22/34/6
f 14/33/6 15/35/6 23/36/6
f 17/37/6 18/29/6 26/38/6
f 20/39/6 21/32/6 29/40/6
f 16/41/6 17/37/6 25/42/6
f 19/30/6 20/39/6 28/43/6
f 15/35/6 16/41/6 24/44/6
f 27/31/8 28/43/8 36/45/8
f 23/36/9 24/44/9 31/46/9
f 26/38/10 27/31/10 35/47/10
f 29/40/11 22/34/11 37/48/11
f 22/34/12 23/36/12 30/49/12
f 25/42/13 26/38/13 34/50/13
f 28/43/14 29/40/14 36/45/14
f 24/44/15 25/42/15 33/51/15
f 5/11/1 38/1/1 1/52/1
f 7/21/3 40/7/3 41/53/3
f 43/54/5 47/13/5 41/55/5
f 12/56/16 42/57/16 19/58/16
f 8/8/6 40/7/6 12/20/6
f 32/59/6 35/28/6 36/24/6
f 6/60/2 46/4/2 45/14/2
f 39/61/5 2/62/5 45/14/5
f 5/11/6 44/10/6 9/63/6
f 13/18/17 9/64/17 16/19/17
f 7/21/6 46/15/6 11/22/6
f 1/65/5 39/61/5 47/13/5
f 8/8/4 44/10/4 4/66/4
f 11/67/18 49/68/18 14/69/18
f 38/1/6 5/11/6 9/63/6
f 49/68/19 10/17/19 15/70/19
f 42/57/20 11/67/20 21/71/20
f 6/2/6 38/1/6 10/16/6
f 9/64/21 48/72/21 17/73/21
f 48/74/22 12/56/22 18/75/22
f 6/2/1 2/76/1 39/3/1
f 45/14/2 46/4/2 3/6/2
f 41/53/3 40/7/3 4/9/3
f 5/11/4 1/77/4 43/12/4
f 41/55/5 47/13/5 3/6/5
f 49/78/6 46/15/6 10/16/6
f 15/70/23 10/17/23 16/19/23
f 48/79/6 44/10/6 12/20/6
f 42/80/6 40/7/6 11/22/6
f 30/81/6 31/23/6 37/25/6
f 32/59/6 33/26/6 35/28/6
f 26/38/6 18/29/6 27/31/6
f 29/40/6 21/32/6 22/34/6
f 22/34/6 14/33/6 23/36/6
f 25/42/6 17/37/6 26/38/6
f 28/43/6 20/39/6 29/40/6
f 24/44/6 16/41/6 25/42/6
f 27/31/6 19/30/6 28/43/6
f 23/36/6 15/35/6 24/44/6
f 35/47/8 27/31/8 36/45/8
f 24/44/9 32/82/9 31/46/9
f 34/50/10 26/38/10 35/47/10
f 22/34/11 30/49/11 37/48/11
f 23/36/12 31/46/12 30/49/12
f 33/51/13 25/42/13 34/50/13
f 29/40/14 37/48/14 36/45/14
f 32/82/15 24/44/15 33/51/15
f 38/1/1 39/3/1 1/52/1
f 3/83/3 7/21/3 41/53/3
f 4/84/5 43/54/5 41/55/5
f 42/57/16 20/85/16 19/58/16
f 40/7/6 42/80/6 12/20/6
f 31/23/6 32/59/6 36/24/6
f 2/62/2 6/60/2 45/14/2
f 47/13/5 39/61/5 45/14/5
f 44/10/6 48/79/6 9/63/6
f 9/64/17 17/73/17 16/19/17
f 46/15/6 49/78/6 11/22/6
f 43/54/5 1/65/5 47/13/5
f 44/10/4 43/12/4 4/66/4
f 21/71/24 11/67/24 14/69/24
f 13/86/6 38/1/6 9/63/6
f 14/69/19 49/68/19 15/70/19
f 20/85/20 42/57/20 21/71/20
f 38/1/6 13/86/6 10/16/6
f 48/72/25 18/87/25 17/73/25
f 12/56/26 19/58/26 18/75/26
g tinyEnergyCrystal
v 0.501182 0.723165 0.500000
v 0.487435 0.687957 0.522324
v 0.473688 0.652750 0.500000
v 0.487435 0.687957 0.477676
v 0.526312 0.675988 0.500000
v 0.512565 0.640781 0.522324
v 0.498818 0.605573 0.500000
v 0.512565 0.640781 0.477676
vt 0.823444 0.804271
vt 0.822203 0.807938
vt 0.824021 0.807938
vt 0.825263 0.804271
vt 0.827081 0.804271
vt 0.822094 0.797517
vt 0.820852 0.801184
vt 0.821528 0.804561
vt 0.822769 0.800894
vt 0.819723 0.804114
vt 0.824597 0.801458
vt 0.825840 0.807938
vt 0.820398 0.807491
vt 0.823922 0.798081
vn 0.542055 0.288740 0.789180
vn -0.542056 -0.288740 0.789180
vn -0.542055 -0.288740 -0.789180
vn 0.542055 0.288740 -0.789180
vn -0.931510 0.363716 0.000000
vn 0.931510 -0.363716 0.000000
vn -0.542055 -0.288740 0.789180
vn -0.542056 -0.288740 -0.789180
s off
f 54/88/27 50/89/27 51/90/27
f 55/91/28 51/90/28 56/92/28
f 56/93/29 52/94/29 53/95/29
f 57/96/30 53/95/30 54/88/30
f 50/89/31 53/95/31 52/97/31
f 57/96/32 54/88/32 55/98/32
f 55/91/27 54/88/27 51/90/27
f 51/90/33 52/99/33 56/92/33
f 57/96/34 56/93/34 53/95/34
f 53/95/30 50/89/30 54/88/30
f 51/100/31 50/89/31 52/97/31
f 56/101/32 57/96/32 55/98/32
g smallEnergyCrystal
v 0.505078 0.916916 0.500000
v 0.446030 0.765688 0.595888
v 0.386981 0.614460 0.500000
v 0.446030 0.765688 0.404112
v 0.613019 0.714278 0.500000
v 0.553970 0.563050 0.595888
v 0.494922 0.411821 0.500000
v 0.553970 0.563050 0.404112
vt 0.789620 0.826527
vt 0.784287 0.842279
vt 0.792098 0.842279
vt 0.797431 0.826527
vt 0.805242 0.826527
vt 0.783819 0.797517
vt 0.778487 0.813269
vt 0.781387 0.827774
vt 0.786720 0.812022
vt 0.773636 0.825852
vt 0.794571 0.814445
vt 0.799909 0.842279
vt 0.776536 0.840356
vt 0.791671 0.799940
s off
f 62/102/27 58/103/27 59/104/27
f 63/105/33 59/104/33 64/106/33
f 64/107/29 60/108/29 61/109/29
f 65/110/30 61/109/30 62/102/30
f 58/103/31 61/109/31 60/111/31
f 65/110/32 62/102/32 63/112/32
f 63/105/27 62/102/27 59/104/27
f 59/104/28 60/113/28 64/106/28
f 65/110/29 64/107/29 61/109/29
f 61/109/30 58/103/30 62/102/30
f 59/114/31 58/103/31 60/111/31
f 64/115/32 65/110/32 63/112/32
